<?xml version="1.0" standalone="no"?>
<!DOCTYPE svg PUBLIC "-//W3C//DTD SVG 20010904//EN"
 "http://www.w3.org/TR/2001/REC-SVG-20010904/DTD/svg10.dtd">
<svg version="1.0" xmlns="http://www.w3.org/2000/svg"
 width="655.000000pt" height="655.000000pt" viewBox="0 0 655.000000 655.000000"
 preserveAspectRatio="xMidYMid meet">
<metadata>
Created by potrace 1.14, written by Peter Selinger 2001-2017
</metadata>
<g transform="translate(0.000000,655.000000) scale(0.100000,-0.100000)"
fill="#000000" stroke="none">
<path d="M474 6058 c-67 -53 -122 -144 -144 -240 -16 -69 -9 -186 14 -248 21
-55 22 -142 38 -2555 12 -1795 13 -1914 22 -1922 8 -8 116 15 131 27 8 7 14
97 18 312 7 311 15 399 45 471 18 46 18 67 14 812 -3 483 15 738 60 863 10 26
10 37 0 50 -7 9 -16 27 -21 39 -6 11 -15 24 -20 28 -15 9 -14 47 3 70 7 11 21
47 31 80 24 79 24 317 1 505 -9 74 -16 173 -14 220 3 80 4 84 28 90 23 6 25
10 24 61 0 29 -8 144 -17 254 -17 198 -23 584 -10 658 l6 39 86 -7 c89 -7 176
3 262 32 40 12 68 13 190 3 79 -6 223 -15 319 -20 96 -5 227 -14 290 -20 63
-5 160 -12 215 -15 55 -3 165 -10 244 -17 l145 -11 23 29 23 29 307 6 c592 11
1340 29 1638 39 165 6 469 12 675 15 206 3 412 8 458 11 l82 6 0 39 c0 24 -5
39 -12 39 -7 0 -51 4 -98 10 -47 5 -188 14 -315 20 -126 6 -311 15 -410 20
-99 5 -333 12 -520 15 -187 3 -358 8 -380 10 -22 3 -317 9 -655 15 -338 5
-718 14 -845 20 -126 6 -338 15 -470 20 -260 11 -595 32 -770 49 -60 6 -184
18 -275 27 -91 9 -208 22 -261 30 -123 18 -121 18 -155 -8z"/>
<path d="M2797 5442 c-4 -5 5 -62 19 -128 14 -65 29 -139 33 -164 5 -25 19
-88 31 -140 26 -112 45 -197 64 -282 7 -35 25 -115 39 -178 36 -167 59 -289
98 -535 6 -38 13 -161 16 -271 5 -190 4 -203 -13 -211 -12 -6 -79 -5 -179 2
-231 17 -443 46 -810 110 -241 43 -314 56 -355 65 -25 5 -63 12 -85 15 -22 4
-71 13 -110 20 -38 7 -115 20 -170 29 -374 58 -401 61 -409 41 -3 -8 -6 -227
-6 -487 l-2 -473 26 -3 c14 -2 51 2 83 8 32 7 94 18 138 26 192 33 444 81 545
104 25 5 72 14 105 19 33 5 89 14 125 20 282 50 429 68 680 85 197 13 400 14
421 0 9 -5 10 -38 5 -118 -4 -61 -11 -195 -16 -297 -6 -131 -12 -195 -23 -215
-29 -58 -105 -325 -136 -484 -6 -30 -20 -98 -31 -150 -66 -310 -135 -735 -124
-765 5 -13 68 -15 489 -15 535 0 516 -2 496 62 -9 31 -46 249 -91 548 -11 74
-25 158 -30 185 -5 28 -14 86 -20 130 -5 44 -18 143 -29 220 -12 77 -25 185
-31 240 -6 55 -12 110 -15 122 -6 24 -30 259 -45 432 -6 68 -6 109 1 117 10
13 44 11 219 -12 162 -21 359 -56 490 -86 25 -6 77 -16 115 -24 65 -12 118
-23 285 -60 173 -37 324 -66 475 -89 55 -9 107 -18 116 -21 9 -2 101 -11 205
-19 147 -11 192 -11 200 -2 8 8 13 153 15 492 l4 480 -50 3 c-54 4 -266 -21
-379 -44 -38 -8 -80 -14 -93 -14 -44 0 -313 -64 -360 -86 -40 -18 -106 -30
-213 -38 -93 -8 -295 -31 -405 -47 -38 -5 -128 -14 -200 -19 -71 -5 -185 -14
-252 -20 -67 -5 -130 -7 -139 -3 -15 6 -16 23 -11 197 6 177 14 241 57 466 7
36 18 88 26 115 7 28 36 145 64 260 28 116 55 224 59 240 5 17 12 46 16 65 3
19 13 64 20 100 45 209 69 447 47 473 -9 10 -112 13 -500 16 -297 2 -492 -1
-495 -7z"/>
<path d="M6046 5348 c-104 -86 -125 -285 -86 -828 31 -431 22 -589 -44 -723
l-35 -72 -5 -1030 c-5 -1035 -13 -1347 -40 -1615 -18 -178 -29 -218 -62 -230
-15 -6 -297 -10 -702 -10 l-677 1 -35 35 c-42 42 -124 82 -182 90 -50 6 -54 3
-90 -52 l-27 -42 -164 -7 c-170 -8 -908 9 -1102 25 -60 5 -321 14 -580 21
-365 9 -521 10 -697 0 -284 -15 -447 -47 -489 -97 -12 -15 -9 -21 30 -54 71
-61 193 -114 321 -139 210 -42 485 -57 771 -42 364 18 1098 36 1479 35 375 0
967 -18 1135 -34 55 -6 165 -14 245 -20 80 -6 179 -14 220 -20 41 -5 119 -15
174 -21 l98 -12 31 33 30 33 201 -6 c111 -3 217 -10 236 -16 19 -6 38 -7 42
-3 9 9 23 274 38 722 5 151 14 411 21 576 10 230 10 324 1 395 -11 91 -11 94
12 124 23 30 24 36 33 380 12 425 3 658 -27 734 -18 48 -20 73 -20 334 0 331
13 542 35 612 35 107 30 870 -6 937 -14 26 -39 22 -83 -14z"/>
<path d="M4182 4728 c-21 -28 -186 -346 -235 -456 -71 -157 -157 -415 -157
-468 0 -25 2 -25 43 -19 70 10 259 45 302 55 22 5 56 12 75 15 64 11 224 66
285 98 96 51 180 107 249 168 l30 26 -19 29 c-40 59 -85 147 -128 250 -47 111
-125 272 -136 279 -10 6 -132 -8 -177 -21 -16 -4 -30 3 -53 25 -33 33 -62 39
-79 19z"/>
<path d="M2129 4597 c-141 -73 -264 -138 -273 -146 -27 -23 -2 -116 51 -194
14 -20 23 -41 19 -45 -4 -4 -28 -14 -54 -23 -26 -9 -48 -22 -50 -31 -2 -9 24
-33 67 -61 38 -26 71 -47 74 -47 3 0 38 -15 79 -33 92 -43 164 -71 318 -125
262 -93 329 -112 395 -112 47 0 67 4 71 14 7 17 -44 227 -86 356 -17 52 -49
132 -71 178 -39 78 -137 222 -172 251 -12 9 -17 29 -17 60 0 41 -4 50 -30 69
-16 12 -37 22 -47 21 -10 0 -133 -60 -274 -132z"/>
<path d="M2660 2850 c-109 -10 -279 -57 -395 -109 -194 -88 -527 -262 -533
-279 -2 -6 8 -16 22 -22 58 -22 61 -140 5 -252 -18 -37 -31 -69 -28 -72 2 -3
40 -8 84 -12 75 -6 82 -9 109 -41 56 -67 157 -115 276 -132 39 -5 75 -13 78
-16 4 -4 7 -28 7 -53 0 -76 22 -66 107 45 158 207 351 582 401 780 22 84 30
150 20 156 -19 11 -73 14 -153 7z"/>
<path d="M3800 2840 c-23 -14 -9 -106 51 -330 87 -328 221 -628 330 -739 37
-39 43 -42 87 -39 l47 3 3 55 c2 30 7 59 11 63 14 14 131 -11 194 -43 48 -24
63 -28 72 -18 32 35 151 355 174 466 17 83 24 91 84 94 l52 3 3 42 c3 41 3 41
-50 66 -76 36 -184 86 -248 114 -30 13 -62 28 -71 32 -26 15 -270 117 -344
144 -168 63 -364 106 -395 87z"/>
</g>
</svg>
